<svg xmlns="http://www.w3.org/2000/svg" width="32" height="32" viewBox="0 0 32 32"><defs><style>.a{fill:#fff;}</style></defs><g transform="translate(-1 4)"><path class="a" d="M28.129,86.229H23.271V78.8c0-1.714,0-4-2.571-4s-2.857,2-2.857,4v7.714H13.271V70.8h4.571v2h0a4.847,4.847,0,0,1,4.571-2.571c4.857,0,5.714,3.143,5.714,7.429ZM7.843,68.8A2.857,2.857,0,1,1,10.7,65.943,3.061,3.061,0,0,1,7.843,68.8h0m2.286,17.429H5.271V70.8h4.857ZM30.414,58.8H2.986A2.254,2.254,0,0,0,.7,61.086V88.514A2.254,2.254,0,0,0,2.986,90.8H30.414A2.254,2.254,0,0,0,32.7,88.514V61.086A2.458,2.458,0,0,0,30.414,58.8" transform="translate(0.3 -62.8)"/></g></svg>