<svg xmlns="http://www.w3.org/2000/svg" width="120" height="23.931" viewBox="0 0 120 23.931"><defs><style>.a{fill:#1b75bc;}</style></defs><g transform="translate(0.006)"><path class="a" d="M119.315,16.184l-.172.172c-2.238,2.755-4.476,4.993-5.854,4.993-.689,0-1.033-.516-.344-1.894l4.476-8.436c1.377-2.41,0-4.132-1.722-4.132-1.377,0-2.755.861-4.3,2.582L116.388,0h-3.1l-8.78,16.184-.172.172a24.468,24.468,0,0,1-3.788,3.615c1.033-3.1.861-7.92,2.755-12.224l-2.41-1.377c-1.377,1.894-4.132,6.2-6.887,9.813h0l-.172.172c-2.238,2.755-4.476,4.993-5.854,4.993-.689,0-1.033-.516-.344-1.894L94.351,6.887h-3.1l-5.509,10.33c-2.41,2.238-4.132,3.615-4.821,3.271-.861-.344,0-1.549.344-2.238L87.292,6.887h-3.1L78,18.25l-.516,1.033C76.1,20.66,74.9,21.521,74.035,21.521c-.689,0-1.033-.516-.344-1.894l3.1-5.854c1.205-1.722.689-2.927-.344-4.132L75.24,8.092a3.763,3.763,0,0,1,.516-.861,4.284,4.284,0,0,0,.516-1.205c.344-1.205-1.205-3.271-2.927-1.894-1.894,1.549-2.066,2.927-1.033,4.476l.344.344c-1.377,2.066-3.271,4.993-5.337,7.575h0c-2.238,2.755-5.165,4.993-7.231,4.993-1.894,0-3.1-1.377-1.549-3.96l3.271-6.026c1.722-3.271,4.993-2.755,3.1.689l-.517.861s1.205-.172,1.549-.172a2.049,2.049,0,0,0,1.377-.689c1.722-3.1,0-5.337-2.41-5.337-2.582,0-4.476,1.377-5.854,3.788l-3.1,5.509-.172.172c-2.238,2.755-4.476,4.993-5.854,4.993-.689,0-1.033-.516-.344-1.894L60.262,0h-3.1l-8.78,16.184h0l-.172.172c-2.238,2.755-4.476,4.993-5.854,4.993-.689,0-1.033-.516-.344-1.894L52.515,0h-3.1l-8.78,16.184h0l-.172.344c-2.238,2.755-4.476,4.993-5.854,4.993-.689,0-1.033-.516-.344-1.894L40.98,7.059h-3.1L33.06,16.184h0l-.344.172c-2.238,2.755-4.476,4.993-5.854,4.993-.689,0-1.377-.689-1.377-2.238V17.733c2.238.344,4.476-1.205,6.026-3.96,0,0,3.615-6.542,3.788-6.887H32.2l-3.788,6.887c-.861,1.722-3.615,2.927-4.3.689v-.344l3.1-5.854h0l.861-1.549h0L31.855,0h-3.1l-8.78,16.184h0l-.172.344a24.469,24.469,0,0,1-3.788,3.615c.861-3.271.689-8.092,2.582-12.4L16.36,6.37c-1.205,1.894-4.132,6.2-6.887,9.813l-.344.172c-2.238,2.755-4.476,4.993-5.854,4.993-.689,0-1.033-.516-.344-1.894l.344-.516s-2.41-1.033-3.1.689c-.689,2.238.689,3.788,2.238,3.788,2.582,0,5.509-2.927,8.092-6.2,1.722-2.238,3.271-4.476,4.476-6.2-1.205,3.443-.516,9.813-3.615,9.813-1.033,0-1.549-1.377-1.549-1.377L8.1,21.176a3.349,3.349,0,0,0,3.271,2.238H12.4a10.028,10.028,0,0,0,4.993-2.238l-1.205,2.066h3.1L22.9,16.528v2.755c0,2.927.516,4.3,3.1,4.3,1.549,0,3.271-1.033,4.993-2.755a2.531,2.531,0,0,0,2.755,2.755c1.549,0,3.271-1.033,4.993-2.755A2.531,2.531,0,0,0,41.5,23.587c1.549,0,3.271-1.033,4.993-2.755a2.531,2.531,0,0,0,2.755,2.755c1.894,0,3.96-1.549,5.854-3.615.172,2.066,1.722,3.615,4.3,3.615,3.615,0,7.059-2.927,9.641-6.2h0A81.149,81.149,0,0,0,73.863,10.5l.344.516a1.847,1.847,0,0,1,.172,1.894l-3.271,6.2c-1.377,2.41-.344,4.821,2.066,4.821a6.451,6.451,0,0,0,3.96-1.894A1.8,1.8,0,0,0,79.2,23.587c1.722,0,3.615-1.722,5.165-3.271a2.616,2.616,0,0,0,2.755,3.271c2.582,0,5.509-2.927,8.092-6.2,1.722-2.238,3.271-4.476,4.476-6.2C98.483,14.634,99.171,21,96.072,21h-.344A2.369,2.369,0,0,1,94.523,19.8L92.8,21.521a3.349,3.349,0,0,0,3.271,2.238h0a10.46,10.46,0,0,0,5.681-2.238l-1.033,2.066h3.1l4.821-8.78c4.821-6.542,6.887-5.681,5.509-3.1l-3.96,7.059c-1.377,2.41-.344,4.821,2.066,4.821s5.165-2.582,7.575-5.509c.516-.861-.344-1.549-.517-1.894M74.38,6.714c-.516-.861-.516-1.033,0-1.549,0,0,.344-.344.516,0,.172.172.172.516-.172,1.033,0,0,0,.172-.344.516" transform="translate(0)"/><path class="a" d="M24.722,4.688a1.911,1.911,0,0,0,1.894-1.894A1.911,1.911,0,0,0,24.722.9,1.77,1.77,0,0,0,23,2.794a1.77,1.77,0,0,0,1.722,1.894" transform="translate(16.602 0.649)"/></g></svg>