<svg xmlns="http://www.w3.org/2000/svg" width="50" height="53.878" viewBox="0 0 50 53.878"><defs><style>.a{fill:#1b75bc;}.b{fill:#fff;}</style></defs><path class="a" d="M23.364.385,1.655,12.317A3.448,3.448,0,0,0,0,15.089V38.8A3.448,3.448,0,0,0,1.655,41.57L23.364,53.5a3.753,3.753,0,0,0,3.272,0L48.345,41.57A3.448,3.448,0,0,0,50,38.8V15.089a3.448,3.448,0,0,0-1.655-2.771L26.636.385A3.747,3.747,0,0,0,24.981,0a3.143,3.143,0,0,0-1.617.385"/><path class="b" d="M44.135,53.33h0M34.7,48.519h0m-.038,0h0m0-.038h0m0,0h0m0,0h0M29.2,53.253h1.771V44.515H29.2Zm5.581-4.734h0m0,0h0m-.077,0h0m-.038,0h0m0-.038V45.863a10.873,10.873,0,0,1,1.116-.077c1.27,0,1.694.385,1.694,1.347,0,1.116-.654,1.386-1.732,1.386A9.378,9.378,0,0,1,34.7,48.48h0c0,.038,0,.038-.038,0,.038.038,0,.038,0,0h0M32.9,44.669v8.584h1.771V49.9c.308,0,.731.038,1.078.038l1.809,3.31h2.04l-2-3.5a2.324,2.324,0,0,0,1.694-2.579c0-2.348-1.578-2.733-3.5-2.733a12.491,12.491,0,0,0-2.887.231m9.546,4.2c0-1.771.038-3,1.694-3s1.694,1.232,1.694,3-.038,3-1.694,3-1.694-1.193-1.694-3m-1.809,0c0,3.156.77,4.465,3.5,4.465s3.5-1.309,3.5-4.465-.77-4.465-3.5-4.465c-2.694,0-3.5,1.309-3.5,4.465m8.661-3.118v7.506h1.578V46.825l2.771,5.389c.462.885.847,1.155,1.5,1.155.693,0,1.078-.385,1.078-1.347V44.515H54.643v6.39l-2.771-5.35c-.423-.847-.885-1.155-1.5-1.155-.654,0-1.078.423-1.078,1.347" transform="translate(-17.961 -27.31)"/><path class="b" d="M34.489,75.677v3.734h-4.7V75.677H29.1v8.314h.693V80.026h4.7v3.965h.693V75.677Zm21.209,0-3.849,3.849V75.677h-.693v8.314h.693v-4.08l3.926,4.08H56.7L52.58,79.719l4.042-4H55.7Zm-15.473.885,1.655,4.426h-3.31Zm-.5-.462L36.683,84.03h.731l.924-2.463h3.734L43,84.03h.731l-3-7.929c-.115-.308-.269-.462-.539-.462q-.231-.058-.462.462M44.5,79.834c0,2.964.654,4.234,3.31,4.234a8.143,8.143,0,0,0,1.809-.192l-.077-.577a5.666,5.666,0,0,1-1.386.154c-2.617,0-2.964-1.193-2.964-3.618s.269-3.618,2.964-3.618c.462,0,.962.077,1.386.115l.077-.577a8.807,8.807,0,0,0-1.809-.154c-2.694,0-3.31,1.309-3.31,4.234" transform="translate(-17.899 -46.501)"/></svg>