<svg xmlns="http://www.w3.org/2000/svg" width="50" height="34.488" viewBox="0 0 50 34.488"><defs><style>.a{fill:#1b75bc;}</style></defs><path class="a" d="M8.393,603.906c-.868-.207-2.123-1.3-3.515-3.05A22.532,22.532,0,0,1,.065,588.335a34.685,34.685,0,0,1,0-4.261,20.968,20.968,0,0,1,4.555-11.209,17.38,17.38,0,0,1,2.833-2.873c.922-.623,1.5-.673,2.059-.179a.7.7,0,0,1,.308.554c.055.487-.195.867-1.355,2.065a19.944,19.944,0,0,0-3.2,3.985A18.4,18.4,0,0,0,2.7,586.929a21,21,0,0,0,.809,5.572A18.384,18.384,0,0,0,8.3,600.588C9.534,601.857,9.84,602.3,9.84,602.8a1.158,1.158,0,0,1-.856,1.1.817.817,0,0,1-.592.006Zm32.528.019a1.491,1.491,0,0,1-.784-.843c-.085-.456.186-.863,1.452-2.174.623-.645,1.389-1.493,1.7-1.885a17.7,17.7,0,0,0,3.912-9.771,35.994,35.994,0,0,0-.1-5.211,19.15,19.15,0,0,0-1.852-6.218,17.808,17.808,0,0,0-3.546-4.955c-1.1-1.134-1.424-1.548-1.535-1.959a1.022,1.022,0,0,1,.272-1.047c.415-.472.89-.514,1.632-.145a11.8,11.8,0,0,1,3.415,3.421,22.7,22.7,0,0,1,4.459,12.72A21.263,21.263,0,0,1,47,598.167c-1.511,2.5-3.816,5.059-5.043,5.6a2.014,2.014,0,0,1-1.04.156Zm-27.146-2.633a1.419,1.419,0,0,1-.983-1.7,1.549,1.549,0,0,1,1.014-1.039c.449-.113,23.692-.113,24.142,0a1.51,1.51,0,0,1,1.012,1.055,1.437,1.437,0,0,1-.68,1.549l-.283.162-12.019.011c-6.61.006-12.1-.014-12.2-.044Zm9.155-5.65a9.11,9.11,0,0,1-5.04-4.294,8.084,8.084,0,0,1-.835-3.482c0-1.55.606-3.027,2.453-5.978a31.016,31.016,0,0,0,2.014-3.442,5.81,5.81,0,0,0,.727-2.733,3.578,3.578,0,0,0-.539-2.134,5.2,5.2,0,0,0-1.226-1.382c-.439-.227-.529-.535-.218-.739.492-.323,1.838-.118,3.074.468a6.6,6.6,0,0,1,3.1,2.862,10.7,10.7,0,0,1,1.077,3.8c.389,2.337.776,3.078,1.556,2.989a1,1,0,0,0,.846-.514c.277-.494.159-1.169-.4-2.288-.459-.914-.43-1.19.108-1.048a7.348,7.348,0,0,1,1.808,1.477,9.564,9.564,0,0,1,2.72,5.276,13.524,13.524,0,0,1,.035,3.883,8.963,8.963,0,0,1-1.328,3.314,10.79,10.79,0,0,1-3.322,3.026c-.494.258-.666.273-.908.083-.3-.237-.238-.4.429-1.11a7.4,7.4,0,0,0,1.809-2.675,5.391,5.391,0,0,0-.536-4.335c-.317-.486-.782-.915-.992-.915-.115,0-.1.152.117.933a3.84,3.84,0,0,1,.136.743c0,.715-1.009,1.233-1.9.975-.722-.21-1.041-.865-.945-1.944.03-.333.056-.939.059-1.347a1.814,1.814,0,0,0-.229-1.2c-.443-.874-1.467-1.773-2.019-1.773-.238,0-.257.014-.257.189a.51.51,0,0,0,.174.352,2.365,2.365,0,0,1,.255,2.591,4.682,4.682,0,0,1-1.567,1.791c-1.328,1.127-1.756,1.664-2.021,2.535a3.059,3.059,0,0,0-.1,1.306,5.179,5.179,0,0,0,.9,2.932A3.407,3.407,0,0,0,23.65,595.2c.347.13.385.163.385.338a.333.333,0,0,1-.381.329,4.931,4.931,0,0,1-.724-.223Z" transform="translate(0 -569.47)"/></svg>