<svg xmlns="http://www.w3.org/2000/svg" width="32" height="31.233" viewBox="0 0 32 31.233"><defs><style>.a{fill:#fff;fill-rule:evenodd;}</style></defs><path class="a" d="M16,78.7a15.986,15.986,0,0,0-5.053,31.158c.842.281,1.123-.281,1.123-.842v-2.807c-4.491.842-5.333-2.246-5.333-2.246-.842-1.965-1.684-2.246-1.684-2.246-1.4-1.123,0-.842,0-.842a3.115,3.115,0,0,1,2.526,1.684c1.123,2.246,3.649,1.684,4.491,1.123a4.228,4.228,0,0,1,1.123-2.246c-3.649-.281-7.3-1.684-7.3-7.86a5.713,5.713,0,0,1,1.684-4.211c-.281-.281-.842-1.965.281-4.211,0,0,1.4-.561,4.491,1.684a18.955,18.955,0,0,1,3.93-.561,16.567,16.567,0,0,1,3.93.561c2.807-1.965,3.93-1.684,3.93-1.684a7.463,7.463,0,0,1,.281,4.211,5.713,5.713,0,0,1,1.684,4.211c0,6.175-3.649,7.579-7.3,7.86a3.742,3.742,0,0,1,1.123,2.807v4.491c0,.561.281.842,1.123.842A15.824,15.824,0,0,0,16,78.7Z" transform="translate(0 -78.7)"/></svg>