<svg xmlns="http://www.w3.org/2000/svg" width="34.163" height="26" viewBox="0 0 34.163 26"><defs><style>.a{fill:#fff;}</style></defs><g transform="translate(1.814)"><path class="a" d="M29.926,41.7H1.809C1.2,41.7.9,41.7.6,42L16.019,57.421,19.344,54.1h0L31.437,42A2.725,2.725,0,0,0,29.926,41.7Z" transform="translate(-0.6 -41.7)"/></g><g transform="translate(22.674 1.512)"><path class="a" d="M18.686,42.2,7.5,53.688,18.686,64.874a1.818,1.818,0,0,0,.3-1.209V43.712A2.726,2.726,0,0,0,18.686,42.2Z" transform="translate(-7.5 -42.2)"/></g><g transform="translate(0 1.512)"><path class="a" d="M.3,42.2A2.726,2.726,0,0,0,0,43.712V63.665c0,.6,0,.907.3,1.209L11.488,53.688Z" transform="translate(0 -42.2)"/></g><g transform="translate(2.116 14.512)"><path class="a" d="M19.747,46.5l-3.326,3.326c-.3.3-.3.3-.6.3s-.6,0-.6-.3L11.886,46.5.7,57.686a1.818,1.818,0,0,0,1.209.3H30.026c.6,0,.907,0,1.209-.3Z" transform="translate(-0.7 -46.5)"/></g></svg>