<svg xmlns="http://www.w3.org/2000/svg" width="32" height="32" viewBox="0 0 32 32"><defs><style>.a{fill:#fff;}</style></defs><path class="a" d="M.1,99.2v32h32v-32Zm26.619,7.646-1.7,1.7c-.283,0-.283.283-.283.566v12.177c0,.283,0,.283.283.566l1.7,1.7v.283h-8.5v-.283l1.7-1.7c.283-.283.283-.283.283-.566v-9.912l-4.814,12.177h-.85L8.879,111.377v8.212a1.04,1.04,0,0,0,.283.85l2.265,2.832v.283H5.2v-.283l2.265-2.832a1.04,1.04,0,0,0,.283-.85v-9.628c0-.283,0-.566-.283-.566l-1.982-2.549v-.283h6.23l4.814,10.478,4.248-10.478h5.947Z" transform="translate(-0.1 -99.2)"/></svg>