<svg xmlns="http://www.w3.org/2000/svg" width="175.68" height="30" viewBox="0 0 175.68 30"><defs><style>.a{fill:#1b75bc;fill-rule:evenodd;}</style></defs><path class="a" d="M57.6,17.239c0,2.547-2.086,4.408-4.966,4.408s-4.966-1.861-4.966-4.408v-9.4H45.683v9.5c0,3.33,2.88,6.171,6.952,6.171s6.952-2.938,6.952-6.171v-9.5H57.6Zm16.287-9.4H68.524V23.508h5.363c4.469,0,7.548-3.036,7.548-7.836C81.434,10.97,78.356,7.836,73.887,7.836Zm-.2,13.713H70.51V9.795h3.178a5.488,5.488,0,0,1,5.76,5.877C79.448,19.59,76.966,21.451,73.688,21.549Zm43.5.294a5.826,5.826,0,0,1-5.959-6.171A5.8,5.8,0,0,1,117.186,9.6a6.964,6.964,0,0,1,4.469,1.567l.794-1.371a7.784,7.784,0,0,0-5.462-1.861,7.481,7.481,0,0,0-7.746,7.738,7.69,7.69,0,0,0,7.945,7.934,7.266,7.266,0,0,0,5.661-2.547l-1.092-1.175a6.857,6.857,0,0,1-4.568,1.959Zm14.9-14.007h1.986V23.508h-1.986Zm10.924,1.959h4.966V23.508h1.986V9.795h4.966V7.836H143.007m30.588,0-4.767,7.15-4.866-7.15h-2.086l5.959,8.718v6.954h1.986V16.554l5.859-8.718m-81.434,0L88.088,23.508h1.986L91.763,19l6.455-1.371,2.185,5.877h1.986L96.331,7.836H94.246Zm-1.887,9.305,2.979-7.248h.1l2.483,6.171-5.561,1.077Z"/><path class="a" d="M29,.5,30,1V14c0,5.552-2.89,8.7-6,10.1h0l-7.621,4.389-.177.1-.086.05,0,0A10.72,10.72,0,0,1,11,30C6,30,0,26,0,18V6L2,7V18c0,8,6,10,9,10a9.177,9.177,0,0,0,6.89-3.255C14.182,23.873,10,20.679,10,14V2.2L2,7,0,6,10,0l1,.5L12,1V14c0,6.94,4.515,8.612,7.018,8.933A11.606,11.606,0,0,0,20,18V5l2,1V18a13.412,13.412,0,0,1-.878,4.914C23.648,22.549,28,20.813,28,14V2.25L22,6,20,5l8-5Z"/></svg>