<svg xmlns="http://www.w3.org/2000/svg" width="128.791" height="36.563" viewBox="0 0 128.791 36.563"><defs><style>.a{fill:#1b75bc;fill-rule:evenodd;}</style></defs><g transform="translate(0 -0.002)"><g transform="translate(0 0.002)"><g transform="translate(0 0)"><path class="a" d="M305.179,66.548h3.7l6.394-16.2h-3.658l-2.643,8.07-2.784-8.07H302.1l4.862,11.7ZM286.837,54.191V62.5h-3.728V50.344h2.62l.779,1.062a5.122,5.122,0,0,1,3.351-1.345,4.043,4.043,0,0,1,3.728,1.723,5.587,5.587,0,0,1,3.87-1.723c2.879,0,4.554,1.487,4.554,5.522V62.5h-3.728V56.008c0-1.864-.755-2.407-1.959-2.407a3.424,3.424,0,0,0-1.958.613,12.191,12.191,0,0,1,.071,1.369V62.5h-3.728V56.008c0-1.864-.755-2.407-1.982-2.407a3.184,3.184,0,0,0-1.888.59Zm-13,1.038h4.79c-.26-1.581-1.109-2.336-2.383-2.336a2.415,2.415,0,0,0-2.407,2.336Zm2.667,7.5c-3.587,0-6.466-1.77-6.466-6.442,0-4.366,2.785-6.253,5.994-6.253,3.87,0,5.593,2.713,5.593,6.985H273.81c.26,2.1,1.558,2.714,3.281,2.714a6.957,6.957,0,0,0,3.978-1.09l-.506,2.957a6.133,6.133,0,0,1-4.062,1.129Zm-13.883-3.138a3.262,3.262,0,0,0,2.147-.637V53.672a3.649,3.649,0,0,0-2.029-.519c-1.817,0-2.855,1.227-2.855,3.28,0,2.006,1.062,3.163,2.737,3.163ZM265.5,61.6a5.7,5.7,0,0,1-3.657,1.18c-3.327,0-5.734-2.053-5.734-6.277,0-4.2,2.761-6.466,6.3-6.466a6.532,6.532,0,0,1,2.359.4V45.281h3.729V62.5h-2.36Zm-25.189-6.3V46.293h3.87v8.936c0,3.209,1.439,3.87,3.422,3.87,2.148,0,3.256-.944,3.256-3.87V46.293h3.894V55.3c0,5.31-2.312,7.528-7.339,7.528-4.672,0-7.1-1.911-7.1-7.528Z" transform="translate(-186.477 -35.138)"/><path class="a" d="M43.968,20.839a1.19,1.19,0,0,0-.526-.247,25.275,25.275,0,0,1-3.75,3.124,3.471,3.471,0,0,1-1.754.566c-1.088,0-1.56-1.037-1.7-2.686-.189-2.214-.317-4.867-.317-8.966,0-4.2-.954-7.063-3.5-7.287-.107-.01-.216-.016-.329-.016-1.56,0-2.317.8-3.31,2.827-.851,1.743-2.175,4.287-4.634,9.094a64.306,64.306,0,0,1-6.526,10.366,7.014,7.014,0,0,1-1.435,1.466,1.492,1.492,0,0,1-.835.277c-.8,0-1.389-.677-1.584-2.254a10.445,10.445,0,0,1-.071-1.279c0-3.251,1.23-8.528,3.357-16.3C18.617,3.865,17.955,0,14.551,0H14.51a3.23,3.23,0,0,0-2.026.773A7.439,7.439,0,0,0,10.7,3.67C10.066,5.231,6.184,13.019,0,17.03a2.888,2.888,0,0,0,2.54,3.215c1.593.151,2.723-.52,4.179-1.5-.109.486-.21.941-.3,1.357-.109.491-.2.915-.275,1.257-.111.509-.181.837-.2.927a26.021,26.021,0,0,0-.44,2.646c-.871,7.788,2.738,11.631,6.966,11.631a8.494,8.494,0,0,0,2.1-.261c4.657-1.181,9.141-6.523,14.449-18.822a34.153,34.153,0,0,0-.031,3.747c.35,7.049,3.138,9.163,7.077,9.163a9.223,9.223,0,0,0,7.187-3.487,6.886,6.886,0,0,0,1.466-4.052,2.56,2.56,0,0,0-.751-2.015" transform="translate(0 -0.002)"/></g></g></g></svg>