<svg xmlns="http://www.w3.org/2000/svg" width="28" height="27.754" viewBox="0 0 28 27.754"><defs><style>.a{fill:#fff;}</style></defs><path class="a" d="M21.308,16.958a1.858,1.858,0,0,0-2.973,0,14.951,14.951,0,0,1-1.982,1.982c-.248.248-.248.248-.5,0a3.521,3.521,0,0,1-1.487-.5,23.579,23.579,0,0,1-5.2-4.708,20.669,20.669,0,0,1-1.982-2.973v-.5A14.951,14.951,0,0,0,9.167,8.286a1.858,1.858,0,0,0,0-2.973A8.693,8.693,0,0,0,7.929,3.33,10.777,10.777,0,0,1,6.194,1.843a1.855,1.855,0,0,0-2.973,0A16.03,16.03,0,0,0,.991,3.826,4.453,4.453,0,0,0,0,6.056a12.587,12.587,0,0,0,.743,4.212A22.879,22.879,0,0,0,5.2,17.7a28.8,28.8,0,0,0,9.167,7.186,12.615,12.615,0,0,0,5.2,1.487,4.1,4.1,0,0,0,3.221-1.239,14.951,14.951,0,0,1,1.982-1.982,1.858,1.858,0,0,0,0-2.973C23.538,19.188,22.547,17.95,21.308,16.958Z" transform="translate(0 1.38)"/><path class="a" d="M11.462,9.74l1.8-.225A8.495,8.495,0,0,0,11.011,4.78,8.7,8.7,0,0,0,6.051,2.3L5.6,4.1A5.834,5.834,0,0,1,9.433,6.133,5.858,5.858,0,0,1,11.462,9.74Z" transform="translate(8.634 3.54)"/><path class="a" d="M14.268,4.058A14.6,14.6,0,0,0,5.925,0L5.7,2.029a11.677,11.677,0,0,1,7.215,3.607A13.239,13.239,0,0,1,16.522,12.4l2.029-.225A15.8,15.8,0,0,0,14.268,4.058Z" transform="translate(9.449)"/></svg>